#!OML:ASF Y:\EmotionMaleHayes\Project 1\Capture day 1\Session 1\Male1.ASF
:FULLY-SPECIFIED
:DEGREES
1
root -29.2792 15.6809 0.252146 -46.077 89.3106 -53.4928
lowerback 17.1 1.32738 -3.15424
upperback 4.36979 1.65523 3.38267
thorax -5.07974 0.952533 5.04472
lowerneck -30.5524 2.8001 2.43048
upperneck 14.6082 3.83515 -4.50656
head 9.67189 1.36971 -1.36054
rclavicle -1.19271e-014 -2.38542e-014
rhumerus -41.6521 16.1304 -76.4673
rradius 71.8329
rwrist -13.3088
rhand -23.6144 -32.4256
rfingers 7.12502
rthumb 2.84977 -62.3863
lclavicle -1.19271e-014 -2.38542e-014
lhumerus -48.2984 -26.7117 104.671
lradius 82.1536
lwrist 4.65106
lhand -24.9865 -20.6437
lfingers 7.12502
lthumb 1.52456 9.33059
rfemur -32.1214 -1.59013 26.1102
rtibia 50.5258
rfoot -25.6828 -5.80488
rtoes 1.15271
lfemur -2.55179 5.34925 -19.0664
ltibia 80.4677
lfoot 174.157 -11.7239
ltoes 3.91746
2
root -28.7317 15.6642 0.232868 -31.3019 86.4058 -36.8293
lowerback 19.2328 2.28137 -1.83062
upperback 4.74873 3.16988 3.52612
thorax -5.91967 1.70281 4.0542
lowerneck -30.6753 2.7061 2.68728
upperneck 14.3106 3.55361 -4.34894
head 9.57304 1.27817 -1.39078
rclavicle -4.37326e-015 1.59028e-015
rhumerus -38.171 16.0412 -76.9189
rradius 71.9246
rwrist -12.884
rhand -24.407 -32.1909
rfingers 7.12502
rthumb 2.0843 -62.1605
lclavicle -4.37326e-015 1.59028e-015
lhumerus -49.341 -24.1409 103.588
lradius 79.0137
lwrist 4.62924
lhand -25.3837 -19.3016
lfingers 7.12502
lthumb 1.14101 10.6751
rfemur -26.1766 0.223169 27.6388
rtibia 48.5665
rfoot -27.2777 -3.54543
rtoes 4.35872
lfemur -3.63451 8.50397 -17.0651
ltibia 77.6735
lfoot 172.604 -11.1007
ltoes 5.25539
3
root -28.3227 15.6101 0.263649 -48.5694 85.3684 -54.1818
lowerback 20.4978 2.29384 -0.386313
upperback 4.42866 3.5348 3.91715
thorax -6.91329 1.8743 3.5187
lowerneck -30.7182 2.63977 2.69484
upperneck 13.9999 3.36843 -3.97693
head 9.45152 1.24381 -1.28887
rclavicle -9.93923e-015 1.98785e-014
rhumerus -34.3808 16.045 -77.3536
rradius 72.0764
rwrist -12.1017
rhand -25.0667 -32.1205
rfingers 7.12502
rthumb 1.44711 -62.0954
lclavicle -9.93923e-015 1.98785e-014
lhumerus -50.4547 -21.642 102.137
lradius 76.3426
lwrist 4.81792
lhand -26.4594 -17.2059
lfingers 7.12502
lthumb 0.102009 12.7738
rfemur -23.26 -0.0875916 29.6274
rtibia 46.7398
rfoot -28.0838 -3.21251
rtoes 3.74265
lfemur -9.08942 8.9563 -14.996
ltibia 73.2531
lfoot 172.62 -8.05845
ltoes 2.07771
4
root -27.8063 15.6043 0.259064 -46.6325 84.14 -51.649
lowerback 21.1641 2.61661 0.396962
upperback 4.62393 4.16198 4.06238
thorax -7.05416 2.16994 3.0407
lowerneck -30.7029 2.60323 2.67904
upperneck 13.8613 3.29072 -3.83099
head 9.39279 1.22736 -1.24689
rclavicle -6.75868e-015 -4.29375e-014
rhumerus -30.3215 16.192 -77.6678
rradius 72.0934
rwrist -11.0669
rhand -25.905 -32.1339
rfingers 7.12502
rthumb 0.6375 -62.1126
lclavicle -6.75868e-015 -4.29375e-014
lhumerus -51.8108 -19.8051 100.837
lradius 74.0997
lwrist 5.38375
lhand -27.9418 -14.7025
lfingers 7.12502
lthumb -1.3297 15.2731
rfemur -19.0444 0.0946508 30.4003
rtibia 44.5405
rfoot -28.8938 -2.70209
rtoes 3.43251
lfemur -12.8704 10.4024 -14.147
ltibia 71.0394
lfoot 172.882 -7.65701
ltoes -4.13529
5
root -27.2987 15.61 0.258415 -44.947 83.4465 -49.7992
lowerback 21.3409 2.85745 0.817682
upperback 4.81051 4.58408 4.14356
thorax -6.94298 2.37102 2.77033
lowerneck -31.095 2.56645 2.61805
upperneck 14.009 3.27502 -3.87652
head 9.50614 1.20576 -1.25508
rclavicle 1.78906e-014 2.22639e-014
rhumerus -26.0416 16.3382 -77.8058
rradius 72.2243
rwrist -9.91168
rhand -26.7444 -31.8818
rfingers 7.12502
rthumb -0.173206 -61.8614
lclavicle 1.78906e-014 2.22639e-014
lhumerus -53.285 -18.4607 99.4928
lradius 72.8501
lwrist 8.07828
lhand -27.3813 -12.7775
lfingers 7.12502
lthumb -0.788326 17.2008
rfemur -15.8737 0.504134 30.7653
rtibia 43.1623
rfoot -29.98 -2.61623
rtoes 3.70693
lfemur -17.4527 11.2987 -13.9713
ltibia 68.9047
lfoot 171.818 -7.2401
ltoes -7.04318
6
root -26.8095 15.6189 0.263906 -45.8174 82.1591 -50.8401
lowerback 21.8373 3.13622 1.73482
upperback 4.5842 5.19367 4.34442
thorax -7.42276 2.64385 2.27139
lowerneck -31.3186 2.52439 2.67381
upperneck 14.371 3.24373 -4.07249
head 9.67603 1.16223 -1.33994
rclavicle -1.11319e-014 7.95139e-015
rhumerus -22.6513 16.4834 -78.1774
rradius 73.035
rwrist -8.83269
rhand -28.2671 -32.5651
rfingers 7.12502
rthumb -1.64391 -62.5385
lclavicle -1.11319e-014 7.95139e-015
lhumerus -55.8889 -17.7309 98.6273
lradius 71.9904
lwrist 9.38804
lhand -27.9784 -12.1476
lfingers 7.12502
lthumb -1.36507 17.8278
rfemur -13.4622 1.40633 32.046
rtibia 42.4656
rfoot -31.0753 -2.97332
rtoes 2.07888
lfemur -22.6486 12.4684 -13.0477
ltibia 67.3857
lfoot 171.009 -7.53157
ltoes -8.86277
7
root -26.279 15.6056 0.247594 -39.6828 81.9107 -45.0123
lowerback 21.2627 3.50251 1.58071
upperback 4.61338 5.56944 4.04485
thorax -7.08436 2.8226 1.96188
lowerneck -32.2528 2.53037 2.42386
upperneck 15.4966 3.22185 -3.44979
head 10.213 1.19212 -1.0793
rclavicle 1.98785e-015 -7.15625e-015
rhumerus -19.2295 16.5129 -78.7129
rradius 73.8905
rwrist -7.87154
rhand -31.0024 -34.1368
rfingers 7.12502
rthumb -4.28548 -64.0735
lclavicle 1.98785e-015 -7.15625e-015
lhumerus -58.4655 -17.5596 97.6874
lradius 71.8964
lwrist 11.686
lhand -26.9216 -12.4726
lfingers 7.12502
lthumb -0.344345 17.5068
rfemur -10.7304 1.45015 31.227
rtibia 41.0934
rfoot -31.496 -2.62563
rtoes -1.01371
lfemur -27.4915 12.8623 -14.1714
ltibia 67.177
lfoot 170.998 -6.86671
ltoes -4.33568
8
root -25.7805 15.6266 0.242238 -41.7 80.8903 -47.4319
lowerback 21.2098 3.67516 2.73858
upperback 4.50232 6.04867 4.06809
thorax -7.0786 3.03004 1.20799
lowerneck -32.6742 2.51153 2.58158
upperneck 15.8812 3.15737 -3.57364
head 10.4246 1.14759 -1.16081
rclavicle -1.31198e-014 0
rhumerus -15.9314 16.4007 -79.3659
rradius 74.6244
rwrist -6.89135
rhand -26.5424 -27.7674
rfingers 7.12502
rthumb 0.0218552 -57.7471
lclavicle -1.31198e-014 0
lhumerus -61.3776 -18.1517 97.1981
lradius 72.2864
lwrist 12.1023
lhand -26.0823 -11.9397
lfingers 7.12502
lthumb 0.466259 18.0396
rfemur -7.99912 1.87177 32.0934
rtibia 39.3919
rfoot -31.8066 -2.08833
rtoes -1.42953
lfemur -32.702 13.3171 -13.5262
ltibia 66.9429
lfoot 169.999 -6.7187
ltoes -4.62583
9
root -25.2795 15.6613 0.234996 -43.7232 79.7821 -49.5889
lowerback 21.6553 3.85182 4.08287
upperback 4.32962 6.60975 4.06454
thorax -7.35812 3.26266 0.268588
lowerneck -32.8884 2.39478 2.6512
upperneck 16.1119 3.0131 -3.75006
head 10.5445 1.05781 -1.26311
rclavicle -6.0033e-014 -7.4743e-014
rhumerus -13.1411 16.1744 -80.1067
rradius 75.5875
rwrist -5.75497
rhand -27.0989 -27.2593
rfingers 7.12502
rthumb -0.515566 -57.2384
lclavicle -6.0033e-014 -7.4743e-014
lhumerus -64.42 -19.2134 96.8883
lradius 72.7467
lwrist 11.5095
lhand -24.6427 -12.8355
lfingers 7.12502
lthumb 1.85666 17.1362
rfemur -4.73498 2.60411 33.1121
rtibia 37.2275
rfoot -31.8704 -1.4927
rtoes -1.19638
lfemur -37.2593 13.7041 -12.5982
ltibia 67.4178
lfoot 169.397 -7.22655
ltoes -6.08575
10
root -24.7509 15.699 0.221192 -43.1137 79.2232 -48.872
lowerback 22.3031 4.1666 4.52932
upperback 4.00049 7.17774 4.0777
thorax -8.00192 3.49476 -0.182895
lowerneck -32.8273 2.07734 2.40123
upperneck 16.6557 2.7337 -3.84685
head 10.7275 0.893672 -1.31275
rclavicle 2.78299e-015 -3.81667e-014
rhumerus -11.2495 16.2203 -80.6716
rradius 76.8511
rwrist -4.64759
rhand -26.7951 -26.3214
rfingers 7.12502
rthumb -0.222165 -56.301
lclavicle 2.78299e-015 -3.81667e-014
lhumerus -67.9193 -20.3312 97.3966
lradius 73.0478
lwrist 10.0645
lhand -23.4102 -13.8596
lfingers 7.12502
lthumb 3.04697 16.0984
rfemur -0.84394 3.19851 33.2065
rtibia 34.3383
rfoot -31.4536 -1.15526
rtoes -2.71742
lfemur -40.9704 13.6925 -12.4055
ltibia 68.9629
lfoot 168.924 -7.62141
ltoes -7.24186
